# xmcd CD database file
#
# Track frame offsets:
#	150
#	19808
#	48130
#	74506
#
# Disc length: 1324 seconds
#
# Revision: 0
# Processed by: cddbd v1.5.1PL0 Copyright (c) Steve Scherf et al.
# Submitted via: CDex 1.51
#
DISCID=2e052a04
DTITLE=Jivan Band - Live Demo
DYEAR=2003
DGENRE=Jazz
TTITLE0=Jump Star (Howe)
TTITLE1=Revelation (Yellowjackets)
TTITLE2=Spain (Corea)
TTITLE3=Don't give it up (Lukater/Carlton)
EXTD=YEAR: 2003
EXTT0=
EXTT1=
EXTT2=
EXTT3=
PLAYORDER=
